<?xml version="1.0" encoding="UTF-8" standalone="no"?>
<!DOCTYPE svg PUBLIC "-//W3C//DTD SVG 1.1//EN"
 "http://www.w3.org/Graphics/SVG/1.1/DTD/svg11.dtd">
<!-- Generated by graphviz version 2.43.0 (0)
 -->
<!-- Title: G Pages: 1 -->
<svg width="925pt" height="303pt"
 viewBox="0.00 0.00 925.20 302.98" xmlns="http://www.w3.org/2000/svg" xmlns:xlink="http://www.w3.org/1999/xlink">
<g id="graph0" class="graph" transform="scale(1 1) rotate(0) translate(21.6 281.38)">
<title>G</title>
<polygon fill="#111111" stroke="transparent" points="-21.6,21.6 -21.6,-281.38 903.6,-281.38 903.6,21.6 -21.6,21.6"/>
<!-- constants/index.ts -->
<g id="node1" class="node">
<title>constants/index.ts</title>
<path fill="none" stroke="#c6c5fe" d="M712.33,-159.69C712.33,-159.69 602.67,-159.69 602.67,-159.69 598.83,-159.69 595,-155.85 595,-152.02 595,-152.02 595,-144.35 595,-144.35 595,-140.52 598.83,-136.69 602.67,-136.69 602.67,-136.69 712.33,-136.69 712.33,-136.69 716.17,-136.69 720,-140.52 720,-144.35 720,-144.35 720,-152.02 720,-152.02 720,-155.85 716.17,-159.69 712.33,-159.69"/>
<text text-anchor="middle" x="657.5" y="-144.49" font-family="Arial" font-size="14.00" fill="#c6c5fe">constants/index.ts</text>
</g>
<!-- constants/regex.ts -->
<g id="node2" class="node">
<title>constants/regex.ts</title>
<path fill="none" stroke="#cfffac" d="M874.33,-179.69C874.33,-179.69 763.67,-179.69 763.67,-179.69 759.83,-179.69 756,-175.85 756,-172.02 756,-172.02 756,-164.35 756,-164.35 756,-160.52 759.83,-156.69 763.67,-156.69 763.67,-156.69 874.33,-156.69 874.33,-156.69 878.17,-156.69 882,-160.52 882,-164.35 882,-164.35 882,-172.02 882,-172.02 882,-175.85 878.17,-179.69 874.33,-179.69"/>
<text text-anchor="middle" x="819" y="-164.49" font-family="Arial" font-size="14.00" fill="#cfffac">constants/regex.ts</text>
</g>
<!-- constants/index.ts&#45;&gt;constants/regex.ts -->
<g id="edge1" class="edge">
<title>constants/index.ts&#45;&gt;constants/regex.ts</title>
<path fill="none" stroke="#757575" d="M720.17,-155.92C728.61,-156.98 737.34,-158.07 745.95,-159.15"/>
<polygon fill="#757575" stroke="#757575" points="745.61,-162.64 755.97,-160.41 746.48,-155.69 745.61,-162.64"/>
</g>
<!-- constants/time.ts -->
<g id="node3" class="node">
<title>constants/time.ts</title>
<path fill="none" stroke="#cfffac" d="M870.83,-138.69C870.83,-138.69 767.17,-138.69 767.17,-138.69 763.33,-138.69 759.5,-134.85 759.5,-131.02 759.5,-131.02 759.5,-123.35 759.5,-123.35 759.5,-119.52 763.33,-115.69 767.17,-115.69 767.17,-115.69 870.83,-115.69 870.83,-115.69 874.67,-115.69 878.5,-119.52 878.5,-123.35 878.5,-123.35 878.5,-131.02 878.5,-131.02 878.5,-134.85 874.67,-138.69 870.83,-138.69"/>
<text text-anchor="middle" x="819" y="-123.49" font-family="Arial" font-size="14.00" fill="#cfffac">constants/time.ts</text>
</g>
<!-- constants/index.ts&#45;&gt;constants/time.ts -->
<g id="edge2" class="edge">
<title>constants/index.ts&#45;&gt;constants/time.ts</title>
<path fill="none" stroke="#757575" d="M720.17,-140.07C729.73,-138.81 739.66,-137.5 749.37,-136.22"/>
<polygon fill="#757575" stroke="#757575" points="749.92,-139.68 759.38,-134.91 749.01,-132.74 749.92,-139.68"/>
</g>
<!-- helpers/async.ts -->
<g id="node4" class="node">
<title>helpers/async.ts</title>
<path fill="none" stroke="#cfffac" d="M371.83,-161.69C371.83,-161.69 273.17,-161.69 273.17,-161.69 269.33,-161.69 265.5,-157.85 265.5,-154.02 265.5,-154.02 265.5,-146.35 265.5,-146.35 265.5,-142.52 269.33,-138.69 273.17,-138.69 273.17,-138.69 371.83,-138.69 371.83,-138.69 375.67,-138.69 379.5,-142.52 379.5,-146.35 379.5,-146.35 379.5,-154.02 379.5,-154.02 379.5,-157.85 375.67,-161.69 371.83,-161.69"/>
<text text-anchor="middle" x="322.5" y="-146.49" font-family="Arial" font-size="14.00" fill="#cfffac">helpers/async.ts</text>
</g>
<!-- helpers/index.ts -->
<g id="node5" class="node">
<title>helpers/index.ts</title>
<path fill="none" stroke="#c6c5fe" d="M204.33,-202.69C204.33,-202.69 108.67,-202.69 108.67,-202.69 104.83,-202.69 101,-198.85 101,-195.02 101,-195.02 101,-187.35 101,-187.35 101,-183.52 104.83,-179.69 108.67,-179.69 108.67,-179.69 204.33,-179.69 204.33,-179.69 208.17,-179.69 212,-183.52 212,-187.35 212,-187.35 212,-195.02 212,-195.02 212,-198.85 208.17,-202.69 204.33,-202.69"/>
<text text-anchor="middle" x="156.5" y="-187.49" font-family="Arial" font-size="14.00" fill="#c6c5fe">helpers/index.ts</text>
</g>
<!-- helpers/index.ts&#45;&gt;helpers/async.ts -->
<g id="edge3" class="edge">
<title>helpers/index.ts&#45;&gt;helpers/async.ts</title>
<path fill="none" stroke="#757575" d="M203.62,-179.66C222.92,-174.83 245.51,-169.18 265.73,-164.13"/>
<polygon fill="#757575" stroke="#757575" points="266.59,-167.52 275.44,-161.7 264.89,-160.73 266.59,-167.52"/>
</g>
<!-- helpers/object.ts -->
<g id="node6" class="node">
<title>helpers/object.ts</title>
<path fill="none" stroke="#cfffac" d="M372.33,-243.69C372.33,-243.69 272.67,-243.69 272.67,-243.69 268.83,-243.69 265,-239.85 265,-236.02 265,-236.02 265,-228.35 265,-228.35 265,-224.52 268.83,-220.69 272.67,-220.69 272.67,-220.69 372.33,-220.69 372.33,-220.69 376.17,-220.69 380,-224.52 380,-228.35 380,-228.35 380,-236.02 380,-236.02 380,-239.85 376.17,-243.69 372.33,-243.69"/>
<text text-anchor="middle" x="322.5" y="-228.49" font-family="Arial" font-size="14.00" fill="#cfffac">helpers/object.ts</text>
</g>
<!-- helpers/index.ts&#45;&gt;helpers/object.ts -->
<g id="edge4" class="edge">
<title>helpers/index.ts&#45;&gt;helpers/object.ts</title>
<path fill="none" stroke="#757575" d="M203.62,-202.72C222.92,-207.54 245.51,-213.19 265.73,-218.25"/>
<polygon fill="#757575" stroke="#757575" points="264.89,-221.64 275.44,-220.67 266.59,-214.85 264.89,-221.64"/>
</g>
<!-- helpers/string.ts -->
<g id="node7" class="node">
<title>helpers/string.ts</title>
<path fill="none" stroke="#cfffac" d="M370.83,-202.69C370.83,-202.69 274.17,-202.69 274.17,-202.69 270.33,-202.69 266.5,-198.85 266.5,-195.02 266.5,-195.02 266.5,-187.35 266.5,-187.35 266.5,-183.52 270.33,-179.69 274.17,-179.69 274.17,-179.69 370.83,-179.69 370.83,-179.69 374.67,-179.69 378.5,-183.52 378.5,-187.35 378.5,-187.35 378.5,-195.02 378.5,-195.02 378.5,-198.85 374.67,-202.69 370.83,-202.69"/>
<text text-anchor="middle" x="322.5" y="-187.49" font-family="Arial" font-size="14.00" fill="#cfffac">helpers/string.ts</text>
</g>
<!-- helpers/index.ts&#45;&gt;helpers/string.ts -->
<g id="edge5" class="edge">
<title>helpers/index.ts&#45;&gt;helpers/string.ts</title>
<path fill="none" stroke="#757575" d="M212.11,-191.19C226.13,-191.19 241.36,-191.19 255.87,-191.19"/>
<polygon fill="#757575" stroke="#757575" points="256.29,-194.69 266.29,-191.19 256.29,-187.69 256.29,-194.69"/>
</g>
<!-- index.ts -->
<g id="node8" class="node">
<title>index.ts</title>
<path fill="none" stroke="#c6c5fe" d="M55.33,-202.69C55.33,-202.69 7.67,-202.69 7.67,-202.69 3.83,-202.69 0,-198.85 0,-195.02 0,-195.02 0,-187.35 0,-187.35 0,-183.52 3.83,-179.69 7.67,-179.69 7.67,-179.69 55.33,-179.69 55.33,-179.69 59.17,-179.69 63,-183.52 63,-187.35 63,-187.35 63,-195.02 63,-195.02 63,-198.85 59.17,-202.69 55.33,-202.69"/>
<text text-anchor="middle" x="31.5" y="-187.49" font-family="Arial" font-size="14.00" fill="#c6c5fe">index.ts</text>
</g>
<!-- index.ts&#45;&gt;constants/index.ts -->
<g id="edge6" class="edge">
<title>index.ts&#45;&gt;constants/index.ts</title>
<path fill="none" stroke="#757575" d="M60.32,-202.81C121.16,-226.71 270.56,-277.24 395,-253.19 483.08,-236.17 579.14,-189.66 626.56,-164.64"/>
<polygon fill="#757575" stroke="#757575" points="628.48,-167.58 635.65,-159.79 625.18,-161.41 628.48,-167.58"/>
</g>
<!-- index.ts&#45;&gt;helpers/index.ts -->
<g id="edge7" class="edge">
<title>index.ts&#45;&gt;helpers/index.ts</title>
<path fill="none" stroke="#757575" d="M63.22,-191.19C71.67,-191.19 81.16,-191.19 90.76,-191.19"/>
<polygon fill="#757575" stroke="#757575" points="90.77,-194.69 100.77,-191.19 90.77,-187.69 90.77,-194.69"/>
</g>
<!-- schema/index.ts -->
<g id="node9" class="node">
<title>schema/index.ts</title>
<path fill="none" stroke="#c6c5fe" d="M206.33,-81.69C206.33,-81.69 106.67,-81.69 106.67,-81.69 102.83,-81.69 99,-77.85 99,-74.02 99,-74.02 99,-66.35 99,-66.35 99,-62.52 102.83,-58.69 106.67,-58.69 106.67,-58.69 206.33,-58.69 206.33,-58.69 210.17,-58.69 214,-62.52 214,-66.35 214,-66.35 214,-74.02 214,-74.02 214,-77.85 210.17,-81.69 206.33,-81.69"/>
<text text-anchor="middle" x="156.5" y="-66.49" font-family="Arial" font-size="14.00" fill="#c6c5fe">schema/index.ts</text>
</g>
<!-- index.ts&#45;&gt;schema/index.ts -->
<g id="edge8" class="edge">
<title>index.ts&#45;&gt;schema/index.ts</title>
<path fill="none" stroke="#757575" d="M44.29,-179.59C65.55,-158.68 110.45,-114.51 136.22,-89.15"/>
<polygon fill="#757575" stroke="#757575" points="138.89,-91.44 143.56,-81.93 133.98,-86.45 138.89,-91.44"/>
</g>
<!-- schema/composite.ts -->
<g id="node10" class="node">
<title>schema/composite.ts</title>
<path fill="none" stroke="#c6c5fe" d="M387.33,-81.69C387.33,-81.69 257.67,-81.69 257.67,-81.69 253.83,-81.69 250,-77.85 250,-74.02 250,-74.02 250,-66.35 250,-66.35 250,-62.52 253.83,-58.69 257.67,-58.69 257.67,-58.69 387.33,-58.69 387.33,-58.69 391.17,-58.69 395,-62.52 395,-66.35 395,-66.35 395,-74.02 395,-74.02 395,-77.85 391.17,-81.69 387.33,-81.69"/>
<text text-anchor="middle" x="322.5" y="-66.49" font-family="Arial" font-size="14.00" fill="#c6c5fe">schema/composite.ts</text>
</g>
<!-- schema/index.ts&#45;&gt;schema/composite.ts -->
<g id="edge14" class="edge">
<title>schema/index.ts&#45;&gt;schema/composite.ts</title>
<path fill="none" stroke="#757575" d="M214.4,-70.19C222.64,-70.19 231.26,-70.19 239.88,-70.19"/>
<polygon fill="#757575" stroke="#757575" points="239.97,-73.69 249.97,-70.19 239.97,-66.69 239.97,-73.69"/>
</g>
<!-- schema/factory.ts -->
<g id="node11" class="node">
<title>schema/factory.ts</title>
<path fill="none" stroke="#c6c5fe" d="M548.33,-41.69C548.33,-41.69 441.67,-41.69 441.67,-41.69 437.83,-41.69 434,-37.85 434,-34.02 434,-34.02 434,-26.35 434,-26.35 434,-22.52 437.83,-18.69 441.67,-18.69 441.67,-18.69 548.33,-18.69 548.33,-18.69 552.17,-18.69 556,-22.52 556,-26.35 556,-26.35 556,-34.02 556,-34.02 556,-37.85 552.17,-41.69 548.33,-41.69"/>
<text text-anchor="middle" x="495" y="-26.49" font-family="Arial" font-size="14.00" fill="#c6c5fe">schema/factory.ts</text>
</g>
<!-- schema/index.ts&#45;&gt;schema/factory.ts -->
<g id="edge15" class="edge">
<title>schema/index.ts&#45;&gt;schema/factory.ts</title>
<path fill="none" stroke="#757575" d="M205.29,-58.6C219.6,-55.48 235.37,-52.36 250,-50.19 308.09,-41.56 374.55,-36.42 423.43,-33.52"/>
<polygon fill="#757575" stroke="#757575" points="423.8,-37 433.58,-32.93 423.4,-30.01 423.8,-37"/>
</g>
<!-- schema/parsers.ts -->
<g id="node12" class="node">
<title>schema/parsers.ts</title>
<path fill="none" stroke="#c6c5fe" d="M551.33,-159.69C551.33,-159.69 438.67,-159.69 438.67,-159.69 434.83,-159.69 431,-155.85 431,-152.02 431,-152.02 431,-144.35 431,-144.35 431,-140.52 434.83,-136.69 438.67,-136.69 438.67,-136.69 551.33,-136.69 551.33,-136.69 555.17,-136.69 559,-140.52 559,-144.35 559,-144.35 559,-152.02 559,-152.02 559,-155.85 555.17,-159.69 551.33,-159.69"/>
<text text-anchor="middle" x="495" y="-144.49" font-family="Arial" font-size="14.00" fill="#c6c5fe">schema/parsers.ts</text>
</g>
<!-- schema/index.ts&#45;&gt;schema/parsers.ts -->
<g id="edge16" class="edge">
<title>schema/index.ts&#45;&gt;schema/parsers.ts</title>
<path fill="none" stroke="#757575" d="M207.15,-81.7C267.54,-95.69 369.41,-119.31 434.09,-134.3"/>
<polygon fill="#757575" stroke="#757575" points="433.61,-137.78 444.14,-136.63 435.19,-130.96 433.61,-137.78"/>
</g>
<!-- schema/types.ts -->
<g id="node13" class="node">
<title>schema/types.ts</title>
<path fill="none" stroke="#cfffac" d="M707.33,-41.69C707.33,-41.69 607.67,-41.69 607.67,-41.69 603.83,-41.69 600,-37.85 600,-34.02 600,-34.02 600,-26.35 600,-26.35 600,-22.52 603.83,-18.69 607.67,-18.69 607.67,-18.69 707.33,-18.69 707.33,-18.69 711.17,-18.69 715,-22.52 715,-26.35 715,-26.35 715,-34.02 715,-34.02 715,-37.85 711.17,-41.69 707.33,-41.69"/>
<text text-anchor="middle" x="657.5" y="-26.49" font-family="Arial" font-size="14.00" fill="#cfffac">schema/types.ts</text>
</g>
<!-- schema/index.ts&#45;&gt;schema/types.ts -->
<g id="edge17" class="edge">
<title>schema/index.ts&#45;&gt;schema/types.ts</title>
<path fill="none" stroke="#757575" d="M180.06,-58.58C198.42,-49.65 225.24,-37.77 250,-31.19 383.05,4.2 422.09,5.39 559,-9.19 573.27,-10.71 588.52,-13.44 602.62,-16.45"/>
<polygon fill="#757575" stroke="#757575" points="602.13,-19.93 612.65,-18.67 603.65,-13.09 602.13,-19.93"/>
</g>
<!-- schema/composite.ts&#45;&gt;constants/index.ts -->
<g id="edge9" class="edge">
<title>schema/composite.ts&#45;&gt;constants/index.ts</title>
<path fill="none" stroke="#757575" d="M372.64,-81.7C432.4,-95.69 533.2,-119.31 597.22,-134.3"/>
<polygon fill="#757575" stroke="#757575" points="596.63,-137.76 607.16,-136.63 598.22,-130.94 596.63,-137.76"/>
</g>
<!-- schema/composite.ts&#45;&gt;schema/factory.ts -->
<g id="edge10" class="edge">
<title>schema/composite.ts&#45;&gt;schema/factory.ts</title>
<path fill="none" stroke="#757575" d="M372.82,-58.62C392.26,-54.06 414.75,-48.78 435.03,-44.02"/>
<polygon fill="#757575" stroke="#757575" points="435.86,-47.42 444.8,-41.73 434.26,-40.61 435.86,-47.42"/>
</g>
<!-- schema/composite.ts&#45;&gt;schema/parsers.ts -->
<g id="edge11" class="edge">
<title>schema/composite.ts&#45;&gt;schema/parsers.ts</title>
<path fill="none" stroke="#757575" d="M361.45,-81.79C372.54,-85.76 384.5,-90.62 395,-96.19 412.44,-105.43 413.76,-112.58 431,-122.19 437.68,-125.91 445,-129.41 452.22,-132.56"/>
<polygon fill="#757575" stroke="#757575" points="451.34,-135.99 461.92,-136.63 454.05,-129.54 451.34,-135.99"/>
</g>
<!-- schema/composite.ts&#45;&gt;schema/types.ts -->
<g id="edge12" class="edge">
<title>schema/composite.ts&#45;&gt;schema/types.ts</title>
<path fill="none" stroke="#757575" d="M395.14,-66.86C441.95,-64.09 504.32,-59.25 559,-51.19 572.1,-49.26 586.08,-46.6 599.24,-43.83"/>
<polygon fill="#757575" stroke="#757575" points="600.08,-47.23 609.12,-41.7 598.61,-40.39 600.08,-47.23"/>
</g>
<!-- schema/factory.ts&#45;&gt;schema/types.ts -->
<g id="edge13" class="edge">
<title>schema/factory.ts&#45;&gt;schema/types.ts</title>
<path fill="none" stroke="#757575" d="M556.22,-30.19C567.19,-30.19 578.68,-30.19 589.82,-30.19"/>
<polygon fill="#757575" stroke="#757575" points="589.92,-33.69 599.92,-30.19 589.92,-26.69 589.92,-33.69"/>
</g>
<!-- schema/parsers.ts&#45;&gt;constants/index.ts -->
<g id="edge18" class="edge">
<title>schema/parsers.ts&#45;&gt;constants/index.ts</title>
<path fill="none" stroke="#757575" d="M559.43,-148.19C567.72,-148.19 576.25,-148.19 584.67,-148.19"/>
<polygon fill="#757575" stroke="#757575" points="584.84,-151.69 594.84,-148.19 584.84,-144.69 584.84,-151.69"/>
</g>
</g>
</svg>
