<?xml version="1.0" encoding="UTF-8" standalone="no"?>
<!DOCTYPE svg PUBLIC "-//W3C//DTD SVG 1.1//EN"
 "http://www.w3.org/Graphics/SVG/1.1/DTD/svg11.dtd">
<!-- Generated by graphviz version 2.43.0 (0)
 -->
<!-- Title: G Pages: 1 -->
<svg width="1560pt" height="554pt"
 viewBox="0.00 0.00 1560.20 554.27" xmlns="http://www.w3.org/2000/svg" xmlns:xlink="http://www.w3.org/1999/xlink">
<g id="graph0" class="graph" transform="scale(1 1) rotate(0) translate(21.6 532.67)">
<title>G</title>
<polygon fill="#111111" stroke="transparent" points="-21.6,21.6 -21.6,-532.67 1538.6,-532.67 1538.6,21.6 -21.6,21.6"/>
<!-- ../core/auth/auth&#45;helpers.schemas.ts -->
<g id="node1" class="node">
<title>../core/auth/auth&#45;helpers.schemas.ts</title>
<path fill="none" stroke="#c6c5fe" d="M327.33,-209.5C327.33,-209.5 106.67,-209.5 106.67,-209.5 102.83,-209.5 99,-205.67 99,-201.83 99,-201.83 99,-194.17 99,-194.17 99,-190.33 102.83,-186.5 106.67,-186.5 106.67,-186.5 327.33,-186.5 327.33,-186.5 331.17,-186.5 335,-190.33 335,-194.17 335,-194.17 335,-201.83 335,-201.83 335,-205.67 331.17,-209.5 327.33,-209.5"/>
<text text-anchor="middle" x="217" y="-194.3" font-family="Arial" font-size="14.00" fill="#c6c5fe">../core/auth/auth&#45;helpers.schemas.ts</text>
</g>
<!-- ../primitives/constants/time.ts -->
<g id="node2" class="node">
<title>../primitives/constants/time.ts</title>
<path fill="none" stroke="#cfffac" d="M1505.33,-172.5C1505.33,-172.5 1329.67,-172.5 1329.67,-172.5 1325.83,-172.5 1322,-168.67 1322,-164.83 1322,-164.83 1322,-157.17 1322,-157.17 1322,-153.33 1325.83,-149.5 1329.67,-149.5 1329.67,-149.5 1505.33,-149.5 1505.33,-149.5 1509.17,-149.5 1513,-153.33 1513,-157.17 1513,-157.17 1513,-164.83 1513,-164.83 1513,-168.67 1509.17,-172.5 1505.33,-172.5"/>
<text text-anchor="middle" x="1417.5" y="-157.3" font-family="Arial" font-size="14.00" fill="#cfffac">../primitives/constants/time.ts</text>
</g>
<!-- ../core/auth/auth&#45;helpers.schemas.ts&#45;&gt;../primitives/constants/time.ts -->
<g id="edge1" class="edge">
<title>../core/auth/auth&#45;helpers.schemas.ts&#45;&gt;../primitives/constants/time.ts</title>
<path fill="none" stroke="#757575" d="M233.38,-186.5C291.46,-144.24 504.28,0 703,0 703,0 703,0 950,0 1125.47,0 1318.76,-103.04 1389.04,-144.26"/>
<polygon fill="#757575" stroke="#757575" points="1387.37,-147.33 1397.76,-149.42 1390.94,-141.31 1387.37,-147.33"/>
</g>
<!-- types/auth.ts -->
<g id="node3" class="node">
<title>types/auth.ts</title>
<path fill="none" stroke="#cfffac" d="M503.83,-209.5C503.83,-209.5 426.17,-209.5 426.17,-209.5 422.33,-209.5 418.5,-205.67 418.5,-201.83 418.5,-201.83 418.5,-194.17 418.5,-194.17 418.5,-190.33 422.33,-186.5 426.17,-186.5 426.17,-186.5 503.83,-186.5 503.83,-186.5 507.67,-186.5 511.5,-190.33 511.5,-194.17 511.5,-194.17 511.5,-201.83 511.5,-201.83 511.5,-205.67 507.67,-209.5 503.83,-209.5"/>
<text text-anchor="middle" x="465" y="-194.3" font-family="Arial" font-size="14.00" fill="#cfffac">types/auth.ts</text>
</g>
<!-- ../core/auth/auth&#45;helpers.schemas.ts&#45;&gt;types/auth.ts -->
<g id="edge2" class="edge">
<title>../core/auth/auth&#45;helpers.schemas.ts&#45;&gt;types/auth.ts</title>
<path fill="none" stroke="#757575" d="M335.24,-198C360.77,-198 386.63,-198 408.42,-198"/>
<polygon fill="#757575" stroke="#757575" points="408.44,-201.5 418.44,-198 408.44,-194.5 408.44,-201.5"/>
</g>
<!-- ../engine/constants/platform.ts -->
<g id="node4" class="node">
<title>../engine/constants/platform.ts</title>
<path fill="none" stroke="#cfffac" d="M1274.33,-253.5C1274.33,-253.5 1092.67,-253.5 1092.67,-253.5 1088.83,-253.5 1085,-249.67 1085,-245.83 1085,-245.83 1085,-238.17 1085,-238.17 1085,-234.33 1088.83,-230.5 1092.67,-230.5 1092.67,-230.5 1274.33,-230.5 1274.33,-230.5 1278.17,-230.5 1282,-234.33 1282,-238.17 1282,-238.17 1282,-245.83 1282,-245.83 1282,-249.67 1278.17,-253.5 1274.33,-253.5"/>
<text text-anchor="middle" x="1183.5" y="-238.3" font-family="Arial" font-size="14.00" fill="#cfffac">../engine/constants/platform.ts</text>
</g>
<!-- ../engine/errors/base.ts -->
<g id="node5" class="node">
<title>../engine/errors/base.ts</title>
<path fill="none" stroke="#c6c5fe" d="M1018.83,-293.5C1018.83,-293.5 879.17,-293.5 879.17,-293.5 875.33,-293.5 871.5,-289.67 871.5,-285.83 871.5,-285.83 871.5,-278.17 871.5,-278.17 871.5,-274.33 875.33,-270.5 879.17,-270.5 879.17,-270.5 1018.83,-270.5 1018.83,-270.5 1022.67,-270.5 1026.5,-274.33 1026.5,-278.17 1026.5,-278.17 1026.5,-285.83 1026.5,-285.83 1026.5,-289.67 1022.67,-293.5 1018.83,-293.5"/>
<text text-anchor="middle" x="949" y="-278.3" font-family="Arial" font-size="14.00" fill="#c6c5fe">../engine/errors/base.ts</text>
</g>
<!-- ../engine/errors/base.ts&#45;&gt;../engine/constants/platform.ts -->
<g id="edge3" class="edge">
<title>../engine/errors/base.ts&#45;&gt;../engine/constants/platform.ts</title>
<path fill="none" stroke="#757575" d="M1016.94,-270.48C1044.66,-265.71 1076.97,-260.16 1105.65,-255.22"/>
<polygon fill="#757575" stroke="#757575" points="1106.37,-258.65 1115.63,-253.5 1105.18,-251.75 1106.37,-258.65"/>
</g>
<!-- ../engine/errors/errors.ts -->
<g id="node6" class="node">
<title>../engine/errors/errors.ts</title>
<path fill="none" stroke="#c6c5fe" d="M776.83,-332.5C776.83,-332.5 631.17,-332.5 631.17,-332.5 627.33,-332.5 623.5,-328.67 623.5,-324.83 623.5,-324.83 623.5,-317.17 623.5,-317.17 623.5,-313.33 627.33,-309.5 631.17,-309.5 631.17,-309.5 776.83,-309.5 776.83,-309.5 780.67,-309.5 784.5,-313.33 784.5,-317.17 784.5,-317.17 784.5,-324.83 784.5,-324.83 784.5,-328.67 780.67,-332.5 776.83,-332.5"/>
<text text-anchor="middle" x="704" y="-317.3" font-family="Arial" font-size="14.00" fill="#c6c5fe">../engine/errors/errors.ts</text>
</g>
<!-- ../engine/errors/errors.ts&#45;&gt;../engine/constants/platform.ts -->
<g id="edge4" class="edge">
<title>../engine/errors/errors.ts&#45;&gt;../engine/constants/platform.ts</title>
<path fill="none" stroke="#757575" d="M784.78,-325.2C855.3,-326.95 960.42,-324.72 1049,-303 1087.35,-293.6 1128.19,-273.22 1154.45,-258.61"/>
<polygon fill="#757575" stroke="#757575" points="1156.46,-261.49 1163.44,-253.52 1153.01,-255.4 1156.46,-261.49"/>
</g>
<!-- ../engine/errors/errors.ts&#45;&gt;../engine/errors/base.ts -->
<g id="edge5" class="edge">
<title>../engine/errors/errors.ts&#45;&gt;../engine/errors/base.ts</title>
<path fill="none" stroke="#757575" d="M776.92,-309.46C804.96,-304.96 837.26,-299.77 866.18,-295.13"/>
<polygon fill="#757575" stroke="#757575" points="866.94,-298.55 876.26,-293.51 865.83,-291.64 866.94,-298.55"/>
</g>
<!-- ../engine/logger/base&#45;logger.ts -->
<g id="node7" class="node">
<title>../engine/logger/base&#45;logger.ts</title>
<path fill="none" stroke="#c6c5fe" d="M1040.33,-51.5C1040.33,-51.5 857.67,-51.5 857.67,-51.5 853.83,-51.5 850,-47.67 850,-43.83 850,-43.83 850,-36.17 850,-36.17 850,-32.33 853.83,-28.5 857.67,-28.5 857.67,-28.5 1040.33,-28.5 1040.33,-28.5 1044.17,-28.5 1048,-32.33 1048,-36.17 1048,-36.17 1048,-43.83 1048,-43.83 1048,-47.67 1044.17,-51.5 1040.33,-51.5"/>
<text text-anchor="middle" x="949" y="-36.3" font-family="Arial" font-size="14.00" fill="#c6c5fe">../engine/logger/base&#45;logger.ts</text>
</g>
<!-- ../engine/logger/types.ts -->
<g id="node8" class="node">
<title>../engine/logger/types.ts</title>
<path fill="none" stroke="#cfffac" d="M1255.83,-132.5C1255.83,-132.5 1111.17,-132.5 1111.17,-132.5 1107.33,-132.5 1103.5,-128.67 1103.5,-124.83 1103.5,-124.83 1103.5,-117.17 1103.5,-117.17 1103.5,-113.33 1107.33,-109.5 1111.17,-109.5 1111.17,-109.5 1255.83,-109.5 1255.83,-109.5 1259.67,-109.5 1263.5,-113.33 1263.5,-117.17 1263.5,-117.17 1263.5,-124.83 1263.5,-124.83 1263.5,-128.67 1259.67,-132.5 1255.83,-132.5"/>
<text text-anchor="middle" x="1183.5" y="-117.3" font-family="Arial" font-size="14.00" fill="#cfffac">../engine/logger/types.ts</text>
</g>
<!-- ../engine/logger/base&#45;logger.ts&#45;&gt;../engine/logger/types.ts -->
<g id="edge6" class="edge">
<title>../engine/logger/base&#45;logger.ts&#45;&gt;../engine/logger/types.ts</title>
<path fill="none" stroke="#757575" d="M1017.64,-51.51C1028.24,-53.93 1038.99,-56.75 1049,-60 1085.48,-71.85 1125.21,-90.85 1151.76,-104.5"/>
<polygon fill="#757575" stroke="#757575" points="1150.43,-107.75 1160.92,-109.26 1153.66,-101.54 1150.43,-107.75"/>
</g>
<!-- ../engine/logger/console.ts -->
<g id="node9" class="node">
<title>../engine/logger/console.ts</title>
<path fill="none" stroke="#c6c5fe" d="M1028.33,-92.5C1028.33,-92.5 869.67,-92.5 869.67,-92.5 865.83,-92.5 862,-88.67 862,-84.83 862,-84.83 862,-77.17 862,-77.17 862,-73.33 865.83,-69.5 869.67,-69.5 869.67,-69.5 1028.33,-69.5 1028.33,-69.5 1032.17,-69.5 1036,-73.33 1036,-77.17 1036,-77.17 1036,-84.83 1036,-84.83 1036,-88.67 1032.17,-92.5 1028.33,-92.5"/>
<text text-anchor="middle" x="949" y="-77.3" font-family="Arial" font-size="14.00" fill="#c6c5fe">../engine/logger/console.ts</text>
</g>
<!-- ../engine/logger/console.ts&#45;&gt;../engine/logger/types.ts -->
<g id="edge7" class="edge">
<title>../engine/logger/console.ts&#45;&gt;../engine/logger/types.ts</title>
<path fill="none" stroke="#757575" d="M1016.94,-92.52C1044.66,-97.29 1076.97,-102.84 1105.65,-107.78"/>
<polygon fill="#757575" stroke="#757575" points="1105.18,-111.25 1115.63,-109.5 1106.37,-104.35 1105.18,-111.25"/>
</g>
<!-- ../engine/logger/correlation.ts -->
<g id="node10" class="node">
<title>../engine/logger/correlation.ts</title>
<path fill="none" stroke="#c6c5fe" d="M1036.83,-213.5C1036.83,-213.5 861.17,-213.5 861.17,-213.5 857.33,-213.5 853.5,-209.67 853.5,-205.83 853.5,-205.83 853.5,-198.17 853.5,-198.17 853.5,-194.33 857.33,-190.5 861.17,-190.5 861.17,-190.5 1036.83,-190.5 1036.83,-190.5 1040.67,-190.5 1044.5,-194.33 1044.5,-198.17 1044.5,-198.17 1044.5,-205.83 1044.5,-205.83 1044.5,-209.67 1040.67,-213.5 1036.83,-213.5"/>
<text text-anchor="middle" x="949" y="-198.3" font-family="Arial" font-size="14.00" fill="#c6c5fe">../engine/logger/correlation.ts</text>
</g>
<!-- ../engine/logger/correlation.ts&#45;&gt;../engine/constants/platform.ts -->
<g id="edge8" class="edge">
<title>../engine/logger/correlation.ts&#45;&gt;../engine/constants/platform.ts</title>
<path fill="none" stroke="#757575" d="M1016.94,-213.52C1044.66,-218.29 1076.97,-223.84 1105.65,-228.78"/>
<polygon fill="#757575" stroke="#757575" points="1105.18,-232.25 1115.63,-230.5 1106.37,-225.35 1105.18,-232.25"/>
</g>
<!-- ../engine/logger/correlation.ts&#45;&gt;../engine/logger/types.ts -->
<g id="edge9" class="edge">
<title>../engine/logger/correlation.ts&#45;&gt;../engine/logger/types.ts</title>
<path fill="none" stroke="#757575" d="M1014.17,-190.48C1025.88,-187.79 1037.89,-184.63 1049,-181 1085.14,-169.2 1124.64,-150.69 1151.23,-137.36"/>
<polygon fill="#757575" stroke="#757575" points="1153.07,-140.34 1160.41,-132.7 1149.9,-134.1 1153.07,-140.34"/>
</g>
<!-- ../engine/logger/index.ts -->
<g id="node11" class="node">
<title>../engine/logger/index.ts</title>
<path fill="none" stroke="#c6c5fe" d="M776.33,-172.5C776.33,-172.5 631.67,-172.5 631.67,-172.5 627.83,-172.5 624,-168.67 624,-164.83 624,-164.83 624,-157.17 624,-157.17 624,-153.33 627.83,-149.5 631.67,-149.5 631.67,-149.5 776.33,-149.5 776.33,-149.5 780.17,-149.5 784,-153.33 784,-157.17 784,-157.17 784,-164.83 784,-164.83 784,-168.67 780.17,-172.5 776.33,-172.5"/>
<text text-anchor="middle" x="704" y="-157.3" font-family="Arial" font-size="14.00" fill="#c6c5fe">../engine/logger/index.ts</text>
</g>
<!-- ../engine/logger/index.ts&#45;&gt;../engine/constants/platform.ts -->
<g id="edge10" class="edge">
<title>../engine/logger/index.ts&#45;&gt;../engine/constants/platform.ts</title>
<path fill="none" stroke="#757575" d="M726.17,-172.7C753.58,-187.19 803.27,-211.28 849,-222 923.13,-239.38 1008.92,-244.19 1074.92,-244.76"/>
<polygon fill="#757575" stroke="#757575" points="1074.9,-248.26 1084.92,-244.82 1074.94,-241.26 1074.9,-248.26"/>
</g>
<!-- ../engine/logger/index.ts&#45;&gt;../engine/logger/base&#45;logger.ts -->
<g id="edge11" class="edge">
<title>../engine/logger/index.ts&#45;&gt;../engine/logger/base&#45;logger.ts</title>
<path fill="none" stroke="#757575" d="M717.77,-149.22C741.63,-127.91 795.41,-83.01 849,-60 853.76,-57.96 858.74,-56.12 863.83,-54.46"/>
<polygon fill="#757575" stroke="#757575" points="865.14,-57.73 873.72,-51.51 863.13,-51.02 865.14,-57.73"/>
</g>
<!-- ../engine/logger/index.ts&#45;&gt;../engine/logger/types.ts -->
<g id="edge15" class="edge">
<title>../engine/logger/index.ts&#45;&gt;../engine/logger/types.ts</title>
<path fill="none" stroke="#757575" d="M775.53,-149.45C798.86,-145.97 825,-142.43 849,-140 931.46,-131.65 1025.79,-126.71 1093.03,-123.96"/>
<polygon fill="#757575" stroke="#757575" points="1093.32,-127.45 1103.17,-123.56 1093.04,-120.46 1093.32,-127.45"/>
</g>
<!-- ../engine/logger/index.ts&#45;&gt;../engine/logger/console.ts -->
<g id="edge12" class="edge">
<title>../engine/logger/index.ts&#45;&gt;../engine/logger/console.ts</title>
<path fill="none" stroke="#757575" d="M733.12,-149.48C761.93,-137.91 808.16,-119.98 849,-107 862.29,-102.78 876.73,-98.7 890.37,-95.08"/>
<polygon fill="#757575" stroke="#757575" points="891.34,-98.44 900.13,-92.52 889.57,-91.67 891.34,-98.44"/>
</g>
<!-- ../engine/logger/index.ts&#45;&gt;../engine/logger/correlation.ts -->
<g id="edge13" class="edge">
<title>../engine/logger/index.ts&#45;&gt;../engine/logger/correlation.ts</title>
<path fill="none" stroke="#757575" d="M773.34,-172.53C803.36,-177.6 838.77,-183.57 869.84,-188.81"/>
<polygon fill="#757575" stroke="#757575" points="869.31,-192.27 879.76,-190.49 870.48,-185.37 869.31,-192.27"/>
</g>
<!-- ../engine/logger/levels.ts -->
<g id="node12" class="node">
<title>../engine/logger/levels.ts</title>
<path fill="none" stroke="#c6c5fe" d="M1022.33,-172.5C1022.33,-172.5 875.67,-172.5 875.67,-172.5 871.83,-172.5 868,-168.67 868,-164.83 868,-164.83 868,-157.17 868,-157.17 868,-153.33 871.83,-149.5 875.67,-149.5 875.67,-149.5 1022.33,-149.5 1022.33,-149.5 1026.17,-149.5 1030,-153.33 1030,-157.17 1030,-157.17 1030,-164.83 1030,-164.83 1030,-168.67 1026.17,-172.5 1022.33,-172.5"/>
<text text-anchor="middle" x="949" y="-157.3" font-family="Arial" font-size="14.00" fill="#c6c5fe">../engine/logger/levels.ts</text>
</g>
<!-- ../engine/logger/index.ts&#45;&gt;../engine/logger/levels.ts -->
<g id="edge14" class="edge">
<title>../engine/logger/index.ts&#45;&gt;../engine/logger/levels.ts</title>
<path fill="none" stroke="#757575" d="M784.23,-161C807.62,-161 833.4,-161 857.44,-161"/>
<polygon fill="#757575" stroke="#757575" points="857.63,-164.5 867.63,-161 857.63,-157.5 857.63,-164.5"/>
</g>
<!-- ../engine/logger/levels.ts&#45;&gt;../engine/constants/platform.ts -->
<g id="edge16" class="edge">
<title>../engine/logger/levels.ts&#45;&gt;../engine/constants/platform.ts</title>
<path fill="none" stroke="#757575" d="M1017.64,-172.51C1028.24,-174.93 1038.99,-177.75 1049,-181 1085.48,-192.85 1125.21,-211.85 1151.76,-225.5"/>
<polygon fill="#757575" stroke="#757575" points="1150.43,-228.75 1160.92,-230.26 1153.66,-222.54 1150.43,-228.75"/>
</g>
<!-- ../engine/logger/levels.ts&#45;&gt;../engine/logger/types.ts -->
<g id="edge17" class="edge">
<title>../engine/logger/levels.ts&#45;&gt;../engine/logger/types.ts</title>
<path fill="none" stroke="#757575" d="M1016.94,-149.48C1044.66,-144.71 1076.97,-139.16 1105.65,-134.22"/>
<polygon fill="#757575" stroke="#757575" points="1106.37,-137.65 1115.63,-132.5 1105.18,-130.75 1106.37,-137.65"/>
</g>
<!-- ../primitives/constants/index.ts -->
<g id="node13" class="node">
<title>../primitives/constants/index.ts</title>
<path fill="none" stroke="#c6c5fe" d="M1274.33,-373.5C1274.33,-373.5 1092.67,-373.5 1092.67,-373.5 1088.83,-373.5 1085,-369.67 1085,-365.83 1085,-365.83 1085,-358.17 1085,-358.17 1085,-354.33 1088.83,-350.5 1092.67,-350.5 1092.67,-350.5 1274.33,-350.5 1274.33,-350.5 1278.17,-350.5 1282,-354.33 1282,-358.17 1282,-358.17 1282,-365.83 1282,-365.83 1282,-369.67 1278.17,-373.5 1274.33,-373.5"/>
<text text-anchor="middle" x="1183.5" y="-358.3" font-family="Arial" font-size="14.00" fill="#c6c5fe">../primitives/constants/index.ts</text>
</g>
<!-- ../primitives/constants/index.ts&#45;&gt;../primitives/constants/time.ts -->
<g id="edge19" class="edge">
<title>../primitives/constants/index.ts&#45;&gt;../primitives/constants/time.ts</title>
<path fill="none" stroke="#757575" d="M1197.98,-350.32C1236.66,-316.81 1348.27,-220.12 1395.25,-179.41"/>
<polygon fill="#757575" stroke="#757575" points="1397.72,-181.9 1402.99,-172.71 1393.14,-176.61 1397.72,-181.9"/>
</g>
<!-- ../primitives/constants/regex.ts -->
<g id="node14" class="node">
<title>../primitives/constants/regex.ts</title>
<path fill="none" stroke="#cfffac" d="M1509.33,-373.5C1509.33,-373.5 1325.67,-373.5 1325.67,-373.5 1321.83,-373.5 1318,-369.67 1318,-365.83 1318,-365.83 1318,-358.17 1318,-358.17 1318,-354.33 1321.83,-350.5 1325.67,-350.5 1325.67,-350.5 1509.33,-350.5 1509.33,-350.5 1513.17,-350.5 1517,-354.33 1517,-358.17 1517,-358.17 1517,-365.83 1517,-365.83 1517,-369.67 1513.17,-373.5 1509.33,-373.5"/>
<text text-anchor="middle" x="1417.5" y="-358.3" font-family="Arial" font-size="14.00" fill="#cfffac">../primitives/constants/regex.ts</text>
</g>
<!-- ../primitives/constants/index.ts&#45;&gt;../primitives/constants/regex.ts -->
<g id="edge18" class="edge">
<title>../primitives/constants/index.ts&#45;&gt;../primitives/constants/regex.ts</title>
<path fill="none" stroke="#757575" d="M1282.22,-362C1290.58,-362 1299.07,-362 1307.52,-362"/>
<polygon fill="#757575" stroke="#757575" points="1307.78,-365.5 1317.78,-362 1307.78,-358.5 1307.78,-365.5"/>
</g>
<!-- ../primitives/schema/composite.ts -->
<g id="node15" class="node">
<title>../primitives/schema/composite.ts</title>
<path fill="none" stroke="#c6c5fe" d="M805.33,-413.5C805.33,-413.5 602.67,-413.5 602.67,-413.5 598.83,-413.5 595,-409.67 595,-405.83 595,-405.83 595,-398.17 595,-398.17 595,-394.33 598.83,-390.5 602.67,-390.5 602.67,-390.5 805.33,-390.5 805.33,-390.5 809.17,-390.5 813,-394.33 813,-398.17 813,-398.17 813,-405.83 813,-405.83 813,-409.67 809.17,-413.5 805.33,-413.5"/>
<text text-anchor="middle" x="704" y="-398.3" font-family="Arial" font-size="14.00" fill="#c6c5fe">../primitives/schema/composite.ts</text>
</g>
<!-- ../primitives/schema/composite.ts&#45;&gt;../primitives/constants/index.ts -->
<g id="edge20" class="edge">
<title>../primitives/schema/composite.ts&#45;&gt;../primitives/constants/index.ts</title>
<path fill="none" stroke="#757575" d="M813.29,-398.82C881.14,-396.13 970.34,-391.34 1049,-383 1068.08,-380.98 1088.6,-378.1 1107.69,-375.13"/>
<polygon fill="#757575" stroke="#757575" points="1108.5,-378.54 1117.83,-373.52 1107.4,-371.63 1108.5,-378.54"/>
</g>
<!-- ../primitives/schema/factory.ts -->
<g id="node16" class="node">
<title>../primitives/schema/factory.ts</title>
<path fill="none" stroke="#c6c5fe" d="M1038.83,-491.5C1038.83,-491.5 859.17,-491.5 859.17,-491.5 855.33,-491.5 851.5,-487.67 851.5,-483.83 851.5,-483.83 851.5,-476.17 851.5,-476.17 851.5,-472.33 855.33,-468.5 859.17,-468.5 859.17,-468.5 1038.83,-468.5 1038.83,-468.5 1042.67,-468.5 1046.5,-472.33 1046.5,-476.17 1046.5,-476.17 1046.5,-483.83 1046.5,-483.83 1046.5,-487.67 1042.67,-491.5 1038.83,-491.5"/>
<text text-anchor="middle" x="949" y="-476.3" font-family="Arial" font-size="14.00" fill="#c6c5fe">../primitives/schema/factory.ts</text>
</g>
<!-- ../primitives/schema/composite.ts&#45;&gt;../primitives/schema/factory.ts -->
<g id="edge21" class="edge">
<title>../primitives/schema/composite.ts&#45;&gt;../primitives/schema/factory.ts</title>
<path fill="none" stroke="#757575" d="M734.52,-413.54C763.45,-424.64 808.9,-441.52 849,-454 862.45,-458.19 877.06,-462.27 890.82,-465.92"/>
<polygon fill="#757575" stroke="#757575" points="890.11,-469.35 900.67,-468.49 891.88,-462.58 890.11,-469.35"/>
</g>
<!-- ../primitives/schema/parsers.ts -->
<g id="node17" class="node">
<title>../primitives/schema/parsers.ts</title>
<path fill="none" stroke="#c6c5fe" d="M1041.33,-373.5C1041.33,-373.5 856.67,-373.5 856.67,-373.5 852.83,-373.5 849,-369.67 849,-365.83 849,-365.83 849,-358.17 849,-358.17 849,-354.33 852.83,-350.5 856.67,-350.5 856.67,-350.5 1041.33,-350.5 1041.33,-350.5 1045.17,-350.5 1049,-354.33 1049,-358.17 1049,-358.17 1049,-365.83 1049,-365.83 1049,-369.67 1045.17,-373.5 1041.33,-373.5"/>
<text text-anchor="middle" x="949" y="-358.3" font-family="Arial" font-size="14.00" fill="#c6c5fe">../primitives/schema/parsers.ts</text>
</g>
<!-- ../primitives/schema/composite.ts&#45;&gt;../primitives/schema/parsers.ts -->
<g id="edge22" class="edge">
<title>../primitives/schema/composite.ts&#45;&gt;../primitives/schema/parsers.ts</title>
<path fill="none" stroke="#757575" d="M774.96,-390.48C804.06,-385.69 838,-380.11 868.07,-375.16"/>
<polygon fill="#757575" stroke="#757575" points="868.81,-378.58 878.11,-373.5 867.68,-371.67 868.81,-378.58"/>
</g>
<!-- ../primitives/schema/types.ts -->
<g id="node18" class="node">
<title>../primitives/schema/types.ts</title>
<path fill="none" stroke="#cfffac" d="M1269.83,-491.5C1269.83,-491.5 1097.17,-491.5 1097.17,-491.5 1093.33,-491.5 1089.5,-487.67 1089.5,-483.83 1089.5,-483.83 1089.5,-476.17 1089.5,-476.17 1089.5,-472.33 1093.33,-468.5 1097.17,-468.5 1097.17,-468.5 1269.83,-468.5 1269.83,-468.5 1273.67,-468.5 1277.5,-472.33 1277.5,-476.17 1277.5,-476.17 1277.5,-483.83 1277.5,-483.83 1277.5,-487.67 1273.67,-491.5 1269.83,-491.5"/>
<text text-anchor="middle" x="1183.5" y="-476.3" font-family="Arial" font-size="14.00" fill="#cfffac">../primitives/schema/types.ts</text>
</g>
<!-- ../primitives/schema/composite.ts&#45;&gt;../primitives/schema/types.ts -->
<g id="edge23" class="edge">
<title>../primitives/schema/composite.ts&#45;&gt;../primitives/schema/types.ts</title>
<path fill="none" stroke="#757575" d="M775.46,-413.51C862.47,-427.72 1010.18,-451.85 1101.7,-466.8"/>
<polygon fill="#757575" stroke="#757575" points="1101.32,-470.29 1111.75,-468.44 1102.45,-463.38 1101.32,-470.29"/>
</g>
<!-- ../primitives/schema/factory.ts&#45;&gt;../primitives/schema/types.ts -->
<g id="edge24" class="edge">
<title>../primitives/schema/factory.ts&#45;&gt;../primitives/schema/types.ts</title>
<path fill="none" stroke="#757575" d="M1046.58,-480C1057.26,-480 1068.18,-480 1078.94,-480"/>
<polygon fill="#757575" stroke="#757575" points="1079.21,-483.5 1089.21,-480 1079.21,-476.5 1079.21,-483.5"/>
</g>
<!-- ../primitives/schema/parsers.ts&#45;&gt;../primitives/constants/index.ts -->
<g id="edge29" class="edge">
<title>../primitives/schema/parsers.ts&#45;&gt;../primitives/constants/index.ts</title>
<path fill="none" stroke="#757575" d="M1049.28,-362C1057.61,-362 1066.07,-362 1074.46,-362"/>
<polygon fill="#757575" stroke="#757575" points="1074.67,-365.5 1084.67,-362 1074.67,-358.5 1074.67,-365.5"/>
</g>
<!-- ../primitives/schema/index.ts -->
<g id="node19" class="node">
<title>../primitives/schema/index.ts</title>
<path fill="none" stroke="#c6c5fe" d="M551.33,-373.5C551.33,-373.5 378.67,-373.5 378.67,-373.5 374.83,-373.5 371,-369.67 371,-365.83 371,-365.83 371,-358.17 371,-358.17 371,-354.33 374.83,-350.5 378.67,-350.5 378.67,-350.5 551.33,-350.5 551.33,-350.5 555.17,-350.5 559,-354.33 559,-358.17 559,-358.17 559,-365.83 559,-365.83 559,-369.67 555.17,-373.5 551.33,-373.5"/>
<text text-anchor="middle" x="465" y="-358.3" font-family="Arial" font-size="14.00" fill="#c6c5fe">../primitives/schema/index.ts</text>
</g>
<!-- ../primitives/schema/index.ts&#45;&gt;../primitives/schema/composite.ts -->
<g id="edge25" class="edge">
<title>../primitives/schema/index.ts&#45;&gt;../primitives/schema/composite.ts</title>
<path fill="none" stroke="#757575" d="M534.23,-373.52C562.49,-378.29 595.43,-383.84 624.67,-388.78"/>
<polygon fill="#757575" stroke="#757575" points="624.4,-392.28 634.84,-390.5 625.56,-385.38 624.4,-392.28"/>
</g>
<!-- ../primitives/schema/index.ts&#45;&gt;../primitives/schema/factory.ts -->
<g id="edge26" class="edge">
<title>../primitives/schema/index.ts&#45;&gt;../primitives/schema/factory.ts</title>
<path fill="none" stroke="#757575" d="M485.84,-373.56C510.57,-387.45 554.54,-410.44 595,-423 675.53,-447.99 769.97,-462.51 840.9,-470.63"/>
<polygon fill="#757575" stroke="#757575" points="840.86,-474.15 851.19,-471.78 841.64,-467.19 840.86,-474.15"/>
</g>
<!-- ../primitives/schema/index.ts&#45;&gt;../primitives/schema/parsers.ts -->
<g id="edge27" class="edge">
<title>../primitives/schema/index.ts&#45;&gt;../primitives/schema/parsers.ts</title>
<path fill="none" stroke="#757575" d="M559.22,-362C639.16,-362 754.44,-362 838.71,-362"/>
<polygon fill="#757575" stroke="#757575" points="838.83,-365.5 848.83,-362 838.83,-358.5 838.83,-365.5"/>
</g>
<!-- ../primitives/schema/index.ts&#45;&gt;../primitives/schema/types.ts -->
<g id="edge28" class="edge">
<title>../primitives/schema/index.ts&#45;&gt;../primitives/schema/types.ts</title>
<path fill="none" stroke="#757575" d="M477.21,-373.51C498.2,-394.31 545.8,-437.95 595,-459 768.74,-533.34 998.5,-511.13 1112.35,-493.14"/>
<polygon fill="#757575" stroke="#757575" points="1113.03,-496.58 1122.34,-491.53 1111.91,-489.67 1113.03,-496.58"/>
</g>
<!-- env.parsers.ts -->
<g id="node20" class="node">
<title>env.parsers.ts</title>
<path fill="none" stroke="#cfffac" d="M259.83,-414.5C259.83,-414.5 174.17,-414.5 174.17,-414.5 170.33,-414.5 166.5,-410.67 166.5,-406.83 166.5,-406.83 166.5,-399.17 166.5,-399.17 166.5,-395.33 170.33,-391.5 174.17,-391.5 174.17,-391.5 259.83,-391.5 259.83,-391.5 263.67,-391.5 267.5,-395.33 267.5,-399.17 267.5,-399.17 267.5,-406.83 267.5,-406.83 267.5,-410.67 263.67,-414.5 259.83,-414.5"/>
<text text-anchor="middle" x="217" y="-399.3" font-family="Arial" font-size="14.00" fill="#cfffac">env.parsers.ts</text>
</g>
<!-- env.schema.ts -->
<g id="node21" class="node">
<title>env.schema.ts</title>
<path fill="none" stroke="#c6c5fe" d="M261.33,-373.5C261.33,-373.5 172.67,-373.5 172.67,-373.5 168.83,-373.5 165,-369.67 165,-365.83 165,-365.83 165,-358.17 165,-358.17 165,-354.33 168.83,-350.5 172.67,-350.5 172.67,-350.5 261.33,-350.5 261.33,-350.5 265.17,-350.5 269,-354.33 269,-358.17 269,-358.17 269,-365.83 269,-365.83 269,-369.67 265.17,-373.5 261.33,-373.5"/>
<text text-anchor="middle" x="217" y="-358.3" font-family="Arial" font-size="14.00" fill="#c6c5fe">env.schema.ts</text>
</g>
<!-- env.schema.ts&#45;&gt;../primitives/schema/index.ts -->
<g id="edge30" class="edge">
<title>env.schema.ts&#45;&gt;../primitives/schema/index.ts</title>
<path fill="none" stroke="#757575" d="M269.27,-362C295.7,-362 328.92,-362 360.4,-362"/>
<polygon fill="#757575" stroke="#757575" points="360.55,-365.5 370.55,-362 360.55,-358.5 360.55,-365.5"/>
</g>
<!-- env.ts -->
<g id="node22" class="node">
<title>env.ts</title>
<path fill="none" stroke="#c6c5fe" d="M236.33,-332.5C236.33,-332.5 197.67,-332.5 197.67,-332.5 193.83,-332.5 190,-328.67 190,-324.83 190,-324.83 190,-317.17 190,-317.17 190,-313.33 193.83,-309.5 197.67,-309.5 197.67,-309.5 236.33,-309.5 236.33,-309.5 240.17,-309.5 244,-313.33 244,-317.17 244,-317.17 244,-324.83 244,-324.83 244,-328.67 240.17,-332.5 236.33,-332.5"/>
<text text-anchor="middle" x="217" y="-317.3" font-family="Arial" font-size="14.00" fill="#c6c5fe">env.ts</text>
</g>
<!-- env.ts&#45;&gt;../engine/errors/errors.ts -->
<g id="edge31" class="edge">
<title>env.ts&#45;&gt;../engine/errors/errors.ts</title>
<path fill="none" stroke="#757575" d="M244.08,-321C312.64,-321 500.47,-321 613.45,-321"/>
<polygon fill="#757575" stroke="#757575" points="613.47,-324.5 623.47,-321 613.47,-317.5 613.47,-324.5"/>
</g>
<!-- env.ts&#45;&gt;../primitives/schema/index.ts -->
<g id="edge32" class="edge">
<title>env.ts&#45;&gt;../primitives/schema/index.ts</title>
<path fill="none" stroke="#757575" d="M244.33,-325.39C277.59,-330.93 336.35,-340.73 384.73,-348.79"/>
<polygon fill="#757575" stroke="#757575" points="384.45,-352.29 394.89,-350.48 385.6,-345.38 384.45,-352.29"/>
</g>
<!-- index.ts -->
<g id="node23" class="node">
<title>index.ts</title>
<path fill="none" stroke="#c6c5fe" d="M55.33,-311.5C55.33,-311.5 7.67,-311.5 7.67,-311.5 3.83,-311.5 0,-307.67 0,-303.83 0,-303.83 0,-296.17 0,-296.17 0,-292.33 3.83,-288.5 7.67,-288.5 7.67,-288.5 55.33,-288.5 55.33,-288.5 59.17,-288.5 63,-292.33 63,-296.17 63,-296.17 63,-303.83 63,-303.83 63,-307.67 59.17,-311.5 55.33,-311.5"/>
<text text-anchor="middle" x="31.5" y="-296.3" font-family="Arial" font-size="14.00" fill="#c6c5fe">index.ts</text>
</g>
<!-- index.ts&#45;&gt;../core/auth/auth&#45;helpers.schemas.ts -->
<g id="edge33" class="edge">
<title>index.ts&#45;&gt;../core/auth/auth&#45;helpers.schemas.ts</title>
<path fill="none" stroke="#757575" d="M38.41,-288.23C48.27,-269.94 69.89,-235.03 99,-218 101.71,-216.41 104.52,-214.94 107.4,-213.58"/>
<polygon fill="#757575" stroke="#757575" points="108.96,-216.72 116.8,-209.6 106.23,-210.28 108.96,-216.72"/>
</g>
<!-- index.ts&#45;&gt;env.parsers.ts -->
<g id="edge34" class="edge">
<title>index.ts&#45;&gt;env.parsers.ts</title>
<path fill="none" stroke="#757575" d="M38.22,-311.61C47.95,-330.04 69.57,-365.66 99,-383 116.16,-393.11 137.04,-398.44 156.39,-401.15"/>
<polygon fill="#757575" stroke="#757575" points="155.99,-404.63 166.34,-402.34 156.82,-397.68 155.99,-404.63"/>
</g>
<!-- index.ts&#45;&gt;env.schema.ts -->
<g id="edge35" class="edge">
<title>index.ts&#45;&gt;env.schema.ts</title>
<path fill="none" stroke="#757575" d="M47.17,-311.67C60.07,-321.33 79.75,-334.61 99,-342 116.53,-348.73 136.41,-353.2 154.74,-356.17"/>
<polygon fill="#757575" stroke="#757575" points="154.33,-359.65 164.74,-357.67 155.37,-352.72 154.33,-359.65"/>
</g>
<!-- types/index.ts -->
<g id="node24" class="node">
<title>types/index.ts</title>
<path fill="none" stroke="#c6c5fe" d="M258.83,-250.5C258.83,-250.5 175.17,-250.5 175.17,-250.5 171.33,-250.5 167.5,-246.67 167.5,-242.83 167.5,-242.83 167.5,-235.17 167.5,-235.17 167.5,-231.33 171.33,-227.5 175.17,-227.5 175.17,-227.5 258.83,-227.5 258.83,-227.5 262.67,-227.5 266.5,-231.33 266.5,-235.17 266.5,-235.17 266.5,-242.83 266.5,-242.83 266.5,-246.67 262.67,-250.5 258.83,-250.5"/>
<text text-anchor="middle" x="217" y="-235.3" font-family="Arial" font-size="14.00" fill="#c6c5fe">types/index.ts</text>
</g>
<!-- index.ts&#45;&gt;types/index.ts -->
<g id="edge36" class="edge">
<title>index.ts&#45;&gt;types/index.ts</title>
<path fill="none" stroke="#757575" d="M47.47,-288.43C60.41,-279.03 79.97,-266.18 99,-259 117.39,-252.06 138.31,-247.52 157.33,-244.55"/>
<polygon fill="#757575" stroke="#757575" points="157.98,-247.99 167.37,-243.09 156.97,-241.06 157.98,-247.99"/>
</g>
<!-- types/index.ts&#45;&gt;types/auth.ts -->
<g id="edge37" class="edge">
<title>types/index.ts&#45;&gt;types/auth.ts</title>
<path fill="none" stroke="#757575" d="M266.6,-230.9C307.44,-224.09 365.79,-214.37 408.46,-207.26"/>
<polygon fill="#757575" stroke="#757575" points="409.12,-210.7 418.41,-205.6 407.97,-203.79 409.12,-210.7"/>
</g>
<!-- types/infra.ts -->
<g id="node25" class="node">
<title>types/infra.ts</title>
<path fill="none" stroke="#c6c5fe" d="M503.83,-250.5C503.83,-250.5 426.17,-250.5 426.17,-250.5 422.33,-250.5 418.5,-246.67 418.5,-242.83 418.5,-242.83 418.5,-235.17 418.5,-235.17 418.5,-231.33 422.33,-227.5 426.17,-227.5 426.17,-227.5 503.83,-227.5 503.83,-227.5 507.67,-227.5 511.5,-231.33 511.5,-235.17 511.5,-235.17 511.5,-242.83 511.5,-242.83 511.5,-246.67 507.67,-250.5 503.83,-250.5"/>
<text text-anchor="middle" x="465" y="-235.3" font-family="Arial" font-size="14.00" fill="#c6c5fe">types/infra.ts</text>
</g>
<!-- types/index.ts&#45;&gt;types/infra.ts -->
<g id="edge38" class="edge">
<title>types/index.ts&#45;&gt;types/infra.ts</title>
<path fill="none" stroke="#757575" d="M266.6,-239C307.35,-239 365.55,-239 408.19,-239"/>
<polygon fill="#757575" stroke="#757575" points="408.41,-242.5 418.41,-239 408.41,-235.5 408.41,-242.5"/>
</g>
<!-- types/services.ts -->
<g id="node26" class="node">
<title>types/services.ts</title>
<path fill="none" stroke="#cfffac" d="M515.33,-291.5C515.33,-291.5 414.67,-291.5 414.67,-291.5 410.83,-291.5 407,-287.67 407,-283.83 407,-283.83 407,-276.17 407,-276.17 407,-272.33 410.83,-268.5 414.67,-268.5 414.67,-268.5 515.33,-268.5 515.33,-268.5 519.17,-268.5 523,-272.33 523,-276.17 523,-276.17 523,-283.83 523,-283.83 523,-287.67 519.17,-291.5 515.33,-291.5"/>
<text text-anchor="middle" x="465" y="-276.3" font-family="Arial" font-size="14.00" fill="#cfffac">types/services.ts</text>
</g>
<!-- types/index.ts&#45;&gt;types/services.ts -->
<g id="edge39" class="edge">
<title>types/index.ts&#45;&gt;types/services.ts</title>
<path fill="none" stroke="#757575" d="M266.6,-247.1C303.86,-253.31 355.7,-261.95 396.9,-268.82"/>
<polygon fill="#757575" stroke="#757575" points="396.43,-272.29 406.87,-270.48 397.58,-265.38 396.43,-272.29"/>
</g>
<!-- types/infra.ts&#45;&gt;../engine/logger/index.ts -->
<g id="edge40" class="edge">
<title>types/infra.ts&#45;&gt;../engine/logger/index.ts</title>
<path fill="none" stroke="#757575" d="M511.78,-230.14C526.94,-226.81 543.82,-222.69 559,-218 597.08,-206.24 639.35,-188.99 668.18,-176.54"/>
<polygon fill="#757575" stroke="#757575" points="669.65,-179.72 677.42,-172.53 666.85,-173.31 669.65,-179.72"/>
</g>
<!-- types/notification.ts -->
<g id="node27" class="node">
<title>types/notification.ts</title>
<path fill="none" stroke="#c6c5fe" d="M274.83,-291.5C274.83,-291.5 159.17,-291.5 159.17,-291.5 155.33,-291.5 151.5,-287.67 151.5,-283.83 151.5,-283.83 151.5,-276.17 151.5,-276.17 151.5,-272.33 155.33,-268.5 159.17,-268.5 159.17,-268.5 274.83,-268.5 274.83,-268.5 278.67,-268.5 282.5,-272.33 282.5,-276.17 282.5,-276.17 282.5,-283.83 282.5,-283.83 282.5,-287.67 278.67,-291.5 274.83,-291.5"/>
<text text-anchor="middle" x="217" y="-276.3" font-family="Arial" font-size="14.00" fill="#c6c5fe">types/notification.ts</text>
</g>
<!-- types/notification.ts&#45;&gt;../primitives/schema/index.ts -->
<g id="edge41" class="edge">
<title>types/notification.ts&#45;&gt;../primitives/schema/index.ts</title>
<path fill="none" stroke="#757575" d="M282.51,-288.44C299.78,-291.54 318.29,-295.65 335,-301 370.72,-312.43 409.32,-331.68 434.89,-345.5"/>
<polygon fill="#757575" stroke="#757575" points="433.24,-348.58 443.69,-350.32 436.6,-342.44 433.24,-348.58"/>
</g>
<!-- types/notification.ts&#45;&gt;types/services.ts -->
<g id="edge42" class="edge">
<title>types/notification.ts&#45;&gt;types/services.ts</title>
<path fill="none" stroke="#757575" d="M282.63,-280C317.75,-280 361.12,-280 396.64,-280"/>
<polygon fill="#757575" stroke="#757575" points="396.92,-283.5 406.92,-280 396.92,-276.5 396.92,-283.5"/>
</g>
</g>
</svg>
